D:\school\WTK\thesis\model\3dpredictsim\Results\Batchsim_tmt_linear_v2\Pog_s1_tmt_aCst_d02_k800_ig24_pas_GRF.mot
nRows=20
nColumns=19

name D:\school\WTK\thesis\model\3dpredictsim\Results\Batchsim_tmt_linear_v2\Pog_s1_tmt_aCst_d02_k800_ig24_pas_GRF.mot
datacolumns 19
datarows 20
range 0.0000000000 0.2047336345
endheader
time 	ground_force_vx	ground_force_vy	ground_force_vz	ground_force_px	ground_force_py	ground_force_pz	1_ground_force_vx	1_ground_force_vy	1_ground_force_vz	1_ground_force_px	1_ground_force_py	1_ground_force_pz	ground_torque_x	ground_torque_y	ground_torque_z	1_ground_torque_x	1_ground_torque_y	1_ground_torque_z
        0.0000000000	      -57.4101847752	       40.5114274025	       11.1355735574	        0.1642924520	        0.0000000000	        0.0466771374	      126.9352800791	      529.5018291695	        3.9112723540	       -0.3464551076	        0.0000000000	       -0.0484485701	        0.0000000000	        0.0000000000	        0.0000000000	        0.0000000000	        0.0000000000	        0.0000000000	
        0.0107754544	     -106.8066881896	       93.4183114002	       28.7286679300	        0.1745576933	        0.0000000000	        0.0446612893	      101.3590699129	      440.3480501058	       -1.2176276864	       -0.3364079459	        0.0000000000	       -0.0471892691	        0.0000000000	        0.0000000000	        0.0000000000	        0.0000000000	        0.0000000000	        0.0000000000	
        0.0215509089	     -110.6840917913	      201.7758751577	       56.1819826055	        0.1812220437	        0.0000000000	        0.0436035092	       67.0857828877	      337.8887830489	       -7.0315857795	       -0.3202829794	        0.0000000000	       -0.0447819704	        0.0000000000	        0.0000000000	        0.0000000000	        0.0000000000	        0.0000000000	        0.0000000000	
        0.0323263633	      -61.3246811292	      368.2671336339	        9.5887130248	        0.1861799120	        0.0000000000	        0.0426472918	       31.1842829367	      237.4613449443	       -5.3686320766	       -0.2946420686	        0.0000000000	       -0.0403909015	        0.0000000000	        0.0000000000	        0.0000000000	        0.0000000000	        0.0000000000	        0.0000000000	
        0.0431018178	      -71.5848746941	      578.8997742904	       -6.0215687805	        0.1946862827	        0.0000000000	        0.0447901209	        7.5459212784	      162.0416176550	       -8.9018402692	       -0.2635705552	        0.0000000000	       -0.0331158974	        0.0000000000	        0.0000000000	        0.0000000000	        0.0000000000	        0.0000000000	        0.0000000000	
        0.0538772722	     -111.0011476767	      787.3640755421	      -13.8376666872	        0.2033669739	        0.0000000000	        0.0474188057	       -1.5517382480	      134.8735209104	      -12.6840609881	       -0.2590831404	        0.0000000000	       -0.0318777813	        0.0000000000	        0.0000000000	        0.0000000000	        0.0000000000	        0.0000000000	        0.0000000000	
        0.0646527267	     -128.2728458477	      894.9116947006	      -17.4097858997	        0.2092097384	        0.0000000000	        0.0490385548	       -2.1278171073	      101.7301704018	      -14.2191566298	       -0.2584699662	        0.0000000000	       -0.0320761988	        0.0000000000	        0.0000000000	        0.0000000000	        0.0000000000	        0.0000000000	        0.0000000000	
        0.0754281811	     -125.9275566349	      904.2050751037	      -17.9086185763	        0.2134581266	        0.0000000000	        0.0500916740	       -4.8605961563	       65.2768225256	      -13.2774485772	       -0.2579737505	        0.0000000000	       -0.0322024831	        0.0000000000	        0.0000000000	        0.0000000000	        0.0000000000	        0.0000000000	        0.0000000000	
        0.0862036356	     -115.9973409991	      869.6350173420	      -17.4146571000	        0.2171172440	        0.0000000000	        0.0508524521	       -8.8763971129	       27.1632587583	       -6.7181189055	       -0.2582763427	        0.0000000000	       -0.0318725947	        0.0000000000	        0.0000000000	        0.0000000000	        0.0000000000	        0.0000000000	        0.0000000000	
        0.0969790900	     -103.6089442574	      832.4785396957	      -15.9599196775	        0.2209744885	        0.0000000000	        0.0514943668	        0.1634920091	       -0.1624132074	        0.0135020349	        0.0000000000	        0.0000000000	        0.0000000000	        0.0000000000	        0.0000000000	        0.0000000000	        0.0000000000	        0.0000000000	        0.0000000000	
        0.1077545445	      -94.5375457906	      807.7375500208	      -17.1010282141	        0.2261039098	        0.0000000000	        0.0521687239	        0.0005126817	       -0.0004179894	       -0.0000042227	        0.0000000000	        0.0000000000	        0.0000000000	        0.0000000000	        0.0000000000	        0.0000000000	        0.0000000000	        0.0000000000	        0.0000000000	
        0.1185299989	      -87.0756965541	      783.7887576307	      -17.0604826551	        0.2322172724	        0.0000000000	        0.0524019055	        0.0002180497	       -0.0001546780	       -0.0000059467	        0.0000000000	        0.0000000000	        0.0000000000	        0.0000000000	        0.0000000000	        0.0000000000	        0.0000000000	        0.0000000000	        0.0000000000	
        0.1293054534	      -78.5004085992	      748.5993614567	      -16.7851860709	        0.2381198564	        0.0000000000	        0.0525211042	        0.0015755133	       -0.0010017482	       -0.0000560704	        0.0000000000	        0.0000000000	        0.0000000000	        0.0000000000	        0.0000000000	        0.0000000000	        0.0000000000	        0.0000000000	        0.0000000000	
        0.1400809078	      -70.2262407365	      712.1468848462	      -16.4817229689	        0.2439048008	        0.0000000000	        0.0525223243	        0.0053372673	       -0.0031105218	       -0.0002112605	        0.0000000000	        0.0000000000	        0.0000000000	        0.0000000000	        0.0000000000	        0.0000000000	        0.0000000000	        0.0000000000	        0.0000000000	
        0.1508563623	      -62.3532335034	      681.1806508280	      -16.3941449406	        0.2495926279	        0.0000000000	        0.0524753427	       -0.0593564129	        0.0321930249	        0.0024980825	        0.0000000000	        0.0000000000	        0.0000000000	        0.0000000000	        0.0000000000	        0.0000000000	        0.0000000000	        0.0000000000	        0.0000000000	
        0.1616318167	      -54.9804796025	      656.3012288133	      -16.7067517159	        0.2550086075	        0.0000000000	        0.0524233937	       -0.0420964734	        0.0214814306	        0.0018523540	        0.0000000000	        0.0000000000	        0.0000000000	        0.0000000000	        0.0000000000	        0.0000000000	        0.0000000000	        0.0000000000	        0.0000000000	
        0.1724072712	      -48.2615125626	      636.9271507824	      -17.0669647106	        0.2601312280	        0.0000000000	        0.0523590982	       -0.0303070964	        0.0146798534	        0.0013722754	        0.0000000000	        0.0000000000	        0.0000000000	        0.0000000000	        0.0000000000	        0.0000000000	        0.0000000000	        0.0000000000	        0.0000000000	
        0.1831827256	      -42.5564665691	      622.1841863438	      -17.4267953484	        0.2649324934	        0.0000000000	        0.0522730735	       -0.0272412564	        0.0126072373	        0.0012578643	        0.0000000000	        0.0000000000	        0.0000000000	        0.0000000000	        0.0000000000	        0.0000000000	        0.0000000000	        0.0000000000	        0.0000000000	
        0.1939581801	      -38.2494430583	      611.7515761061	      -18.0067871355	        0.2694028674	        0.0000000000	        0.0521591140	       -0.0314266738	        0.0139720808	        0.0014741239	        0.0000000000	        0.0000000000	        0.0000000000	        0.0000000000	        0.0000000000	        0.0000000000	        0.0000000000	        0.0000000000	        0.0000000000	
        0.2047336345	      -34.5154986726	      604.3064199705	      -18.9273970897	        0.2735627075	        0.0000000000	        0.0520115879	       -0.0448715382	        0.0192641938	        0.0021403896	        0.0000000000	        0.0000000000	        0.0000000000	        0.0000000000	        0.0000000000	        0.0000000000	        0.0000000000	        0.0000000000	        0.0000000000	
